<svg xmlns="http://www.w3.org/2000/svg" viewBox="0 0 1061.12 47.3"><defs><style>.cls-1{fill:#e6b9b8;}</style></defs><g id="Layer_2" data-name="Layer 2"><g id="Layer_9" data-name="Layer 9"><path class="cls-1" d="M22.18,7.09c2.12,0,5.31.11,7.85,1.36.35.18.78.36,1.28.59a9.09,9.09,0,0,1,3.11,2.35c.17.31.28.53.43.55a7.25,7.25,0,0,1,1.36,3.76h3l.58-11.49c-3.13-2.28-7.87-2.54-9.55-2.55a56.86,56.86,0,0,0-7.91-.46H21.27a22,22,0,0,0-9.08,1.92q-7.53,3.36-10.67,12A25.72,25.72,0,0,0,0,24v.22a26.55,26.55,0,0,0,1.28,8.64A19,19,0,0,0,11.89,44.59a21.66,21.66,0,0,0,9,1.76h1.28a29.79,29.79,0,0,0,3-.15c2.25-.06,9-.48,13.33-3.37.19-1.45.55-7,.19-8.69A15.82,15.82,0,0,0,34.09,34a33.27,33.27,0,0,1-.46,5l-.24.15-9.27.64c-1.52,0-2.82-.08-3.55-.08-4,0-5.21-.91-7.57-3.88s-3.55-6.95-3.55-11.9,1.15-9,3.45-12.1A11,11,0,0,1,22.18,7.09Z"/><path class="cls-1" d="M84.89,46.23H83.54a19.49,19.49,0,0,1-8.29-1.69q-6.72-3.12-8-10.86a81.14,81.14,0,0,1-.52-11.27,86.2,86.2,0,0,0-.25-9.23,8.86,8.86,0,0,0-1.15-2.67,5.71,5.71,0,0,1-.91-3,4,4,0,0,1,1.62-2.92c.59-.51,2-.77,4.16-.77a15.45,15.45,0,0,1,5,.62,2.33,2.33,0,0,1,1.72,2.35,28.33,28.33,0,0,1-.7,3.53q-.69,3-.69,13.16t1.78,13.29a7.82,7.82,0,0,0,7.34,4.06q6,0,8.39-4.33Q95,33.13,95,23.93a116.36,116.36,0,0,0-.46-12.76,44.66,44.66,0,0,1-.46-5,1.87,1.87,0,0,1,1.35-1.91,11.63,11.63,0,0,1,3.83-.49,5.86,5.86,0,0,1,3.28.62A3.26,3.26,0,0,1,104,6.93v.83a6.88,6.88,0,0,1-.9,2.72A10.45,10.45,0,0,0,102,14c-.14,1.17-.2,4.17-.2,9a79.41,79.41,0,0,1-.51,10.64A15,15,0,0,1,98.84,40a13.13,13.13,0,0,1-5.66,4.57A20.05,20.05,0,0,1,84.89,46.23Z"/><path class="cls-1" d="M152.94,47.3l-.13-9.65a5.23,5.23,0,0,0-4.12-2.06,4.47,4.47,0,0,1-2,3.93,12.33,12.33,0,0,1-5.44,1.31c-2,0-3.2-.66-3.66-2-.32-.91-.49-4.5-.49-10.77V21c0-.68,0-1.29,0-1.85l0-.83a44.91,44.91,0,0,1,.28-6.18,28.12,28.12,0,0,1,.79-3.3,15.46,15.46,0,0,0,.47-2,3.78,3.78,0,0,1,1.78-.62c4.25-.19-2.12-4.05-2.12-4.05-.58,0-16.42-.39-16.42-.39L122.49,6s5.53.6,7.78,4a9,9,0,0,1,.29,1.44q.16,1.41.17,13.38c0,3.38,0,6.14-.07,8.3l-.25-.31S131.57,40,125,41.77a36.69,36.69,0,0,0-.38,5.21s2.61.07,5.73,0h0Z"/><path class="cls-1" d="M189.33,43.8c0,1.86-1.08,2.78-3.26,2.78h-5.2a4.37,4.37,0,0,1-2.64-.69A2.22,2.22,0,0,1,177.3,44a8.54,8.54,0,0,1,.93-3.25,13.83,13.83,0,0,0,1.17-3.93q.22-1.89.23-12.19c0-6.86-.08-11-.23-12.27a12.63,12.63,0,0,0-1.17-3.93,7.69,7.69,0,0,1-.93-3q0-2.71,3.4-2.72h5.18q3.45,0,3.45,2.69a7.91,7.91,0,0,1-.94,3,13.66,13.66,0,0,0-1.22,4.31q-.27,2.31-.28,12t.21,11.76a12.87,12.87,0,0,0,1.22,4.28A8.53,8.53,0,0,1,189.33,43.8Z"/><path class="cls-1" d="M237.79,7.2a18.31,18.31,0,0,1,7.85,1.37l1.27.59A8.86,8.86,0,0,1,250,11.5c.18.31.28.53.44.56a7.23,7.23,0,0,1,1.36,3.75h3l.58-11.49c-3.13-2.27-7.87-2.53-9.55-2.55a57,57,0,0,0-7.92-.46h-1a22,22,0,0,0-9.09,1.92q-7.53,3.36-10.67,12a25.72,25.72,0,0,0-1.52,8.93v.22A26.27,26.27,0,0,0,216.89,33a19,19,0,0,0,10.6,11.72,21.86,21.86,0,0,0,9,1.76h1.28a29.91,29.91,0,0,0,3-.16c2.24-.06,8.95-.48,13.32-3.37.2-1.45.55-7,.2-8.69a16.25,16.25,0,0,0-4.64-.19,31.79,31.79,0,0,1-.46,5l-.24.15-9.27.64c-1.51,0-2.82-.07-3.55-.07-4,0-5.2-.92-7.57-3.89s-3.54-6.95-3.54-11.9,1.15-9,3.44-12.1A11,11,0,0,1,237.79,7.2Z"/><path class="cls-1" d="M323.48,32.2a18.3,18.3,0,0,1-2.5,4.52,11.53,11.53,0,0,1-4,4c-.3.25-.66.53-1.06.84s-.84.56-1.51,1-1.52.86-2.56,1.42l-.42.26a4.4,4.4,0,0,0-.53.42,12.14,12.14,0,0,1-5.35,1.9c-.41,0-.94.07-1.59.1l-2.25.16-3.29.32-1.17.1-3.73-1.26c-1.12-.39-2.05-.72-2.79-1s-1.3-.51-1.67-.68a11.25,11.25,0,0,1-3.85-2.74c-.67-.84-1.35-1.68-2.06-2.53a1.64,1.64,0,0,0-.33-.52c-.3-.35-.67-.76-1.12-1.24s-.93-1-1.45-1.71l-.83-1.73c-.19-.39-.3-.62-.34-.69-.26-.87-.58-1.94-1-3.21s-.85-2.75-1.37-4.47a6.41,6.41,0,0,1-.22-1.84,27.39,27.39,0,0,1,.89-2.74l-.11-.89a10.19,10.19,0,0,0,.39-2.58A8.56,8.56,0,0,1,279.3,14a15.16,15.16,0,0,1,2.39-2.84,7.05,7.05,0,0,0,.89-.74c.34-.32.75-.68,1.23-1.1.15-.21.34-.47.59-.77s.51-.64.8-1a4.61,4.61,0,0,0,.73-.56c.29-.26.74-.62,1.34-1.07l1.67-.79L291.22,4c.26-.17.54-.35.84-.52l.33-.11.39-.1a2,2,0,0,1,.73-.37A13.5,13.5,0,0,1,298.13,2h1.56c.89,0,2.12,0,3.68.05l.56,0a5.21,5.21,0,0,1,.55.08l1.34.26q.72.17,1.56.42l.95.26,1.34.43q.43.25,1.11.57l1.56.74a13.09,13.09,0,0,1,2.23,1,.12.12,0,0,1,.05.1.15.15,0,0,0,.06.11L317,8.32c.59.42,1.39,1.07,2.39,1.94l2.4,2.42a.34.34,0,0,1,.16.11l.95,1.52c.34.53.65,1.07.95,1.63.07.32.17.71.31,1.19s.28,1,.47,1.71v.42a4.17,4.17,0,0,0,0,.53A9.26,9.26,0,0,1,325,21c.11.47.24,1,.39,1.6v3.32A49.38,49.38,0,0,1,323.48,32.2ZM313.18,27a1.06,1.06,0,0,1-.06-.29A4.17,4.17,0,0,0,313,26c-.06-.28-.12-.63-.2-1a.12.12,0,0,1,0-.1.15.15,0,0,0-.06-.11c-.19-.7-.43-1.51-.72-2.42s-.65-1.95-1.06-3.1c-.56-.81-1.3-2-2.23-3.58l-1.09-.9c-.43-.35-.92-.77-1.48-1.26a5,5,0,0,0-.44-.47l-.5-.48a9,9,0,0,0-.92-.5c-.54-.26-1.29-.63-2.26-1.13l-3.51-.63-3.12.21a3.49,3.49,0,0,0-.58.29c-.21.13-.44.27-.7.45a9.81,9.81,0,0,0-2.56,2.58l-.7,1.58c-.28.63-.6,1.38-1,2.26-.07.17-.16.44-.27.79s-.26.8-.45,1.37v2.78c.07.35.17.71.28,1.08s.2.75.28,1.13c.22,1.09.46,2.19.72,3.32a10.87,10.87,0,0,1,1.28,1.79c.08.17.17.39.28.65s.26.59.45,1a17,17,0,0,0,2,2.42,1.71,1.71,0,0,0,.45.36,13.13,13.13,0,0,0,3,2.9l1.17.47c.33.18.67.37,1,.58l1,.63a5,5,0,0,0,2.23.63,6.33,6.33,0,0,0,3.63-.73l1.17-.9,1.56-1.21q.78-.73,2.34-5.1a2.12,2.12,0,0,1,.11-.21c0-.07.09-.18.16-.32l.84-3.31a.71.71,0,0,0,.11-.47A1.35,1.35,0,0,0,313.18,27Z"/><path class="cls-1" d="M388.17,0c-3.09,0-13.64.26-13.64.26s-1.81,2.44-.13,4c5.53-.77,4.89,7.85,4.89,7.85l.22-.06c.18,2.37.27,5.41.27,9.16q0,9.69-.32,9.69-.79,0-9.89-11.72T359.08,6.25a14.38,14.38,0,0,0-9.83-3.35c-2.08,0-3.11.54-3.11,1.63l.14,1a19.58,19.58,0,0,0,.66,2.1l.35,1.1a22,22,0,0,1,.61,4.73c.08,1.93.12,6,.12,12.21,0,4.28,0,7.32-.12,9.17-.18.33-.28.56-.28.56s-2.06,4.76-6.44,5.53a6.81,6.81,0,0,0-1,4.25l7.29.05c.58,0,1.39.08,2.44.08.48,0,.94,0,1.38,0l7.56,0V40.43a6.38,6.38,0,0,1-2.68-1.58c-.11-.67-.25-1.44-.42-2.34a51.31,51.31,0,0,1-.84-9.46c0-3.32,0-5.45,0-6.37l0-1.38c0-2.18.22-3.26.66-3.26q1.39,0,10,11.33t11.1,13.83a10,10,0,0,0,7.13,3.32,3.81,3.81,0,0,0,2-.37,2,2,0,0,0,.75-1.52q.18-1.16.18-13.12T386.81,15a24.22,24.22,0,0,1,1.13-5.41,24.81,24.81,0,0,0,.93-3.18,1.36,1.36,0,0,0,0-.2C389.81,3.24,390.49,2.19,388.17,0Z"/><path class="cls-1" d="M479.54,8c2.11,0,5.3.11,7.84,1.37.36.18.78.36,1.28.59a8.86,8.86,0,0,1,3.11,2.34c.18.31.28.53.44.56a7.16,7.16,0,0,1,1.35,3.75h3l.58-11.49c-3.13-2.27-7.87-2.53-9.56-2.55a57,57,0,0,0-7.91-.45h-1A22,22,0,0,0,469.54,4Q462,7.35,458.87,16a25.76,25.76,0,0,0-1.52,8.93v.23a26.36,26.36,0,0,0,1.29,8.64,19,19,0,0,0,10.6,11.71,21.85,21.85,0,0,0,9,1.76h1.29a29.94,29.94,0,0,0,3-.15c2.24-.06,8.95-.49,13.32-3.38.2-1.44.55-7,.2-8.69a16.25,16.25,0,0,0-4.64-.19,31.65,31.65,0,0,1-.46,5l-.24.15-9.27.65c-1.51,0-2.82-.08-3.55-.08-4,0-5.2-.92-7.57-3.88s-3.54-7-3.54-11.91,1.15-9,3.44-12.09A11,11,0,0,1,479.54,8Z"/><path class="cls-1" d="M564.53,31.21A18.08,18.08,0,0,1,562,35.73a11.37,11.37,0,0,1-4,4c-.3.25-.65.53-1.06.84a16.14,16.14,0,0,1-1.5.95c-.67.39-1.53.86-2.57,1.42l-.41.26a3.73,3.73,0,0,0-.53.42,12.14,12.14,0,0,1-5.35,1.9c-.41,0-.94.07-1.59.1l-2.26.16-3.28.32-1.18.1-3.73-1.26c-1.11-.39-2-.72-2.78-1s-1.31-.51-1.68-.69a11.05,11.05,0,0,1-3.84-2.73c-.67-.84-1.36-1.68-2.06-2.53a1.45,1.45,0,0,0-.34-.52c-.29-.35-.67-.77-1.11-1.24a22,22,0,0,1-1.45-1.71l-.84-1.74c-.18-.38-.29-.61-.33-.68-.26-.87-.59-1.94-1-3.21s-.84-2.75-1.36-4.47a6.07,6.07,0,0,1-.22-1.84,24.53,24.53,0,0,1,.89-2.74l-.11-.89a11.39,11.39,0,0,0,.39-2.58A8.43,8.43,0,0,1,520.34,13a15.52,15.52,0,0,1,2.4-2.84,7.05,7.05,0,0,0,.89-.74c.33-.32.74-.68,1.23-1.11.14-.21.34-.46.58-.76l.81-1A4.62,4.62,0,0,0,527,6c.3-.26.75-.62,1.34-1.08L530,4.12,532.27,3c.26-.17.53-.35.83-.53l.34-.1.39-.1c0-.08.28-.2.72-.37A13.55,13.55,0,0,1,539.18,1h1.56c.89,0,2.11,0,3.67.05A5.12,5.12,0,0,1,545,1a5.39,5.39,0,0,1,.56.08l1.34.26q.72.17,1.56.42l.94.26,1.34.42a12.44,12.44,0,0,0,1.12.58l1.56.74a12.73,12.73,0,0,1,2.22,1,.14.14,0,0,1,.06.1.15.15,0,0,0,.06.11L558,7.33c.59.42,1.39,1.07,2.4,1.94.52.53,1.31,1.34,2.39,2.42,0,0,.09,0,.17.11.3.49.61,1,.95,1.52s.65,1.07.94,1.63c.08.32.18.71.31,1.19s.29,1,.47,1.71v.42a2.85,2.85,0,0,0,.06.52A11.79,11.79,0,0,1,566,20c.12.47.25,1,.39,1.6V24.9A50.24,50.24,0,0,1,564.53,31.21ZM554.22,26a1,1,0,0,1-.05-.29,3.43,3.43,0,0,0-.09-.69c-.05-.28-.12-.63-.19-1.05a.14.14,0,0,1-.06-.11.19.19,0,0,0-.05-.1c-.19-.7-.43-1.51-.73-2.42s-.65-1.95-1.06-3.1c-.55-.81-1.3-2-2.23-3.58l-1.08-.9c-.43-.35-.92-.77-1.48-1.26-.15-.17-.3-.33-.45-.47l-.5-.48a6.52,6.52,0,0,0-.92-.5c-.54-.26-1.29-.63-2.25-1.13q-1.85-.32-3.51-.63l-3.12.21a3.56,3.56,0,0,0-.59.29c-.2.13-.44.27-.7.45a10,10,0,0,0-2.56,2.58c-.19.42-.42.94-.69,1.57s-.61,1.39-1,2.27a7.17,7.17,0,0,0-.28.79l-.44,1.36v2.79q.1.53.27,1.08a8.88,8.88,0,0,1,.28,1.13c.23,1.09.47,2.19.73,3.32a11.5,11.5,0,0,1,1.28,1.79l.28.65c.11.27.26.59.44,1a17.46,17.46,0,0,0,2,2.42,1.59,1.59,0,0,0,.44.36,13.13,13.13,0,0,0,3,2.9l1.17.47c.34.18.67.37,1,.58l1,.63a5,5,0,0,0,2.23.63,6.29,6.29,0,0,0,3.62-.73l1.17-.9,1.56-1.21q.78-.74,2.34-5.1a2.12,2.12,0,0,0,.11-.21c0-.07.09-.18.17-.32l.84-3.31a.72.72,0,0,0,.11-.48A.94.94,0,0,0,554.22,26Z"/><path class="cls-1" d="M629.8.52c-3.09,0-13.65.25-13.65.25s-1.8,2.45-.13,4c5.54-.77,4.9,7.86,4.9,7.86l.22-.06c.17,2.37.26,5.4.26,9.16q0,9.69-.31,9.69-.81,0-9.9-11.72T600.7,6.77a14.31,14.31,0,0,0-9.83-3.35c-2.07,0-3.11.54-3.11,1.63l.14,1c.05.25.27.94.66,2.09l.35,1.11a22.48,22.48,0,0,1,.62,4.72q.12,2.91.12,12.22c0,4.28,0,7.31-.13,9.16-.18.34-.28.56-.28.56s-2.06,4.77-6.44,5.54a6.87,6.87,0,0,0-1,4.25l7.29,0c.59.05,1.4.08,2.44.08q.74,0,1.38-.06l7.56.06v-4.9a6.38,6.38,0,0,1-2.67-1.58c-.12-.67-.26-1.44-.43-2.34a51.15,51.15,0,0,1-.84-9.46q0-5,0-6.36l0-1.39c0-2.17.22-3.26.67-3.26q1.39,0,10,11.34t11.11,13.82A10,10,0,0,0,625.32,45a4,4,0,0,0,2-.37,2.13,2.13,0,0,0,.75-1.52q.16-1.15.17-13.13t.21-14.53a23.6,23.6,0,0,1,1.14-5.41,24.2,24.2,0,0,0,.93-3.19c0-.07,0-.13,0-.2C631.43,3.75,632.11,2.71,629.8.52Z"/><path class="cls-1" d="M673.79,25.41a13.21,13.21,0,0,1,2.9,8.77,11.4,11.4,0,0,1-3.64,8.69,12.24,12.24,0,0,1-8.74,3.46h-1q-6.36,0-9.74-1.79a5.79,5.79,0,0,1-2.26-2.22,6.17,6.17,0,0,1-.89-3.22v-.94c0-2.07.79-3.11,2.36-3.11.71,0,1.74.65,3.08,2a17.58,17.58,0,0,0,3.79,2.89,8.72,8.72,0,0,0,4.18.94A6.1,6.1,0,0,0,668,39.28,5.42,5.42,0,0,0,669.79,35a6.32,6.32,0,0,0-2.36-4.82,44.32,44.32,0,0,0-6.14-3.74,26.31,26.31,0,0,1-6.69-4.71,12.69,12.69,0,0,1-3.26-8.6A11.35,11.35,0,0,1,663.1,1.49h1c4,0,6.86.5,8.68,1.5s2.75,2.94,2.75,5.81a2.93,2.93,0,0,1-.66,2.12,2,2,0,0,1-1.41.68q-.76,0-3.94-2.31A10.25,10.25,0,0,0,663.62,7a5.08,5.08,0,0,0-4.06,1.57,5.73,5.73,0,0,0-1.34,3.83c0,1.51.87,2.95,2.6,4.34.06,0,1.92,1.13,5.6,3.26S672.55,23.93,673.79,25.41Z"/><path class="cls-1" d="M716,46h-1.35a19.34,19.34,0,0,1-8.29-1.69q-6.71-3.11-8-10.85a80.78,80.78,0,0,1-.53-11.27,83.39,83.39,0,0,0-.25-9.24,8.61,8.61,0,0,0-1.15-2.67,5.73,5.73,0,0,1-.9-3,4,4,0,0,1,1.61-2.92c.59-.52,2-.77,4.16-.77a15.2,15.2,0,0,1,5,.62,2.32,2.32,0,0,1,1.71,2.34,29,29,0,0,1-.69,3.53q-.69,3-.69,13.17t1.77,13.28a7.84,7.84,0,0,0,7.34,4.07q6,0,8.4-4.33,1.9-3.39,1.9-12.58a116,116,0,0,0-.46-12.75,47.31,47.31,0,0,1-.46-5,1.87,1.87,0,0,1,1.35-1.91,11.65,11.65,0,0,1,3.84-.49,5.84,5.84,0,0,1,3.27.62A3.28,3.28,0,0,1,735.2,6.7v.83a6.74,6.74,0,0,1-.91,2.71,10.58,10.58,0,0,0-1.1,3.56q-.2,1.77-.2,9a79.48,79.48,0,0,1-.51,10.65A15.2,15.2,0,0,1,730,39.77a13.23,13.23,0,0,1-5.66,4.56A19.94,19.94,0,0,1,716,46Z"/><path class="cls-1" d="M786.7,46.31l-.13-9.66a5.26,5.26,0,0,0-4.12-2.06,4.48,4.48,0,0,1-2,3.94,12.46,12.46,0,0,1-5.44,1.3c-2,0-3.19-.66-3.66-2-.32-.91-.48-4.49-.48-10.76V20c0-.67,0-1.29,0-1.85l0-.83a44.91,44.91,0,0,1,.28-6.18,28.12,28.12,0,0,1,.79-3.3,13.57,13.57,0,0,0,.47-2,3.78,3.78,0,0,1,1.79-.62c4.24-.19-2.13-4.05-2.13-4.05-.58,0-16.41-.39-16.41-.39L756.25,5s5.52.6,7.77,4a9,9,0,0,1,.29,1.44q.18,1.41.17,13.38c0,3.38,0,6.14-.06,8.3l-.26-.31s1.16,7.15-5.4,8.89a35.76,35.76,0,0,0-.39,5.21s2.61.07,5.73,0h0Z"/><path class="cls-1" d="M840.32,4.36a2.88,2.88,0,0,0-2.82-3.23l-22-.34-9.61.15a2.84,2.84,0,0,0-2.77,2.59l-.48,5.58a1.11,1.11,0,0,0,1.59,1.05,48.09,48.09,0,0,1,6.63-2.61h0a5.37,5.37,0,0,0,1.71-.49c1.08-.29,2.21-.53,3.38-.73.72.09,1.39.26,1.86.26,1.44,0,1.44,2.48,1.76,4.18A97.18,97.18,0,0,1,820,22.28v7.33l-.06,1.84a29.23,29.23,0,0,1-.31,5.17,22,22,0,0,1-.93,3.23,8.32,8.32,0,0,0-.61,2.45,3.07,3.07,0,0,0,1.18,2.83,7.26,7.26,0,0,0,3.34.47l.76,0h.76a12.4,12.4,0,0,0,3.54-.28,2.46,2.46,0,0,0,1.65-2.4,14.41,14.41,0,0,0-.75-3.3,25,25,0,0,1-1-5.77q-.21-3.32-.21-12.23a79.13,79.13,0,0,1,.42-10.94c.35-1.73.61-4.9,2-4.9a14.37,14.37,0,0,1,5.09,2.46,11.4,11.4,0,0,0,1.72,1.83,6.77,6.77,0,0,1,.92,1.89C843,9.68,840.27,6.39,840.32,4.36Z"/><path class="cls-1" d="M890.35,30c-1.06-2.48-2.59-6.64-4.62-12.49q-4.38-12.66-4.94-14a4.07,4.07,0,0,0-4.06-2.6,4.4,4.4,0,0,0-4.18,2.52q-.33.65-1.94,5.4t-4.19,11.81c-1.65,4.52-2.7,7.36-3.18,8.56-.24.39-.48.82-.73,1.3-5.22,10.05-10.24,13.91-10.24,13.91s16,1.93,15.45.19c-.47-1.42,1-9.92,1.54-13a4.36,4.36,0,0,1,.55-1q.87-1,5.63-1c3.17,0,5.14.37,5.88,1.12a3.74,3.74,0,0,1,.7,1.07v0s1.74,9.65,2.51,12.74c.72,2.87,14.1,0,14.1,0S893.85,36.88,890.35,30Zm-11-5.14c0,.22-.95.34-2.86.34h-1.79L873,25.3h-.14l-.17,0h-.14c-.59,0-.89-.16-.89-.5,0,0,.23-.71.68-2.09a28.25,28.25,0,0,0,.89-3l.45-1.68c1-3.63,1.54-5.88,1.73-6.75a6.11,6.11,0,0,1,.34-1.3,15.73,15.73,0,0,1,.54,2.13c.33,1.42.6,2.51.8,3.27s.38,1.54.53,2.37.44,2,.87,3.64l.23.84a14.34,14.34,0,0,1,.67,2.33Z"/><path class="cls-1" d="M962.28.52c-3.09,0-13.65.25-13.65.25s-1.8,2.45-.13,4c5.54-.77,4.89,7.86,4.89,7.86l.22-.06c.18,2.37.27,5.4.27,9.16q0,9.69-.32,9.69-.79,0-9.89-11.72T933.18,6.77a14.33,14.33,0,0,0-9.83-3.35c-2.08,0-3.11.54-3.11,1.63l.14,1A19.75,19.75,0,0,0,921,8.15l.35,1.11A21.91,21.91,0,0,1,922,14q.12,2.91.12,12.22c0,4.28,0,7.31-.12,9.16-.18.34-.28.56-.28.56s-2.06,4.77-6.44,5.54a6.8,6.8,0,0,0-1,4.25l7.29,0c.58.05,1.39.08,2.44.08.49,0,.94,0,1.38-.06l7.56.06v-4.9a6.44,6.44,0,0,1-2.68-1.58c-.11-.67-.25-1.44-.42-2.34a51.15,51.15,0,0,1-.84-9.46q0-5,0-6.36l0-1.39c0-2.17.22-3.26.66-3.26q1.41,0,10,11.34t11.1,13.82A10,10,0,0,0,957.8,45a3.9,3.9,0,0,0,2-.37,2.06,2.06,0,0,0,.75-1.52Q960.7,42,960.7,30t.21-14.53A24.1,24.1,0,0,1,962,10.08,24.2,24.2,0,0,0,963,6.89a1.36,1.36,0,0,0,0-.2C963.91,3.75,964.59,2.71,962.28.52Z"/><path class="cls-1" d="M1018,5.35a2.89,2.89,0,0,0-2.83-3.23l-21.94-.34-9.61.16a2.82,2.82,0,0,0-2.78,2.58l-.48,5.58a1.12,1.12,0,0,0,1.6,1.05,48.64,48.64,0,0,1,6.62-2.61h0a5.37,5.37,0,0,0,1.71-.49c1.08-.29,2.22-.53,3.38-.73.73.09,1.39.26,1.86.26,1.45,0,1.44,2.48,1.76,4.18a94.85,94.85,0,0,1,.37,11.51V30.6l-.06,1.84a29.23,29.23,0,0,1-.31,5.17,21.88,21.88,0,0,1-.92,3.23,8.1,8.1,0,0,0-.62,2.45,3.1,3.1,0,0,0,1.18,2.84,7.44,7.44,0,0,0,3.34.46l.76,0h.76a12.4,12.4,0,0,0,3.54-.28,2.46,2.46,0,0,0,1.66-2.4,14.62,14.62,0,0,0-.76-3.3,24.92,24.92,0,0,1-1-5.77q-.21-3.3-.21-12.22t.42-10.95c.36-1.73.61-4.9,2-4.9a14.29,14.29,0,0,1,5.08,2.47,11.68,11.68,0,0,0,1.72,1.82,6.51,6.51,0,0,1,.92,1.89C1020.61,10.67,1017.91,7.38,1018,5.35Z"/><path class="cls-1" d="M1058.21,24.76a13.12,13.12,0,0,1,2.91,8.76,11.44,11.44,0,0,1-3.65,8.7,12.26,12.26,0,0,1-8.74,3.45h-1c-4.24,0-7.49-.6-9.73-1.79a5.7,5.7,0,0,1-2.26-2.21,6.14,6.14,0,0,1-.9-3.22v-.94c0-2.08.79-3.11,2.36-3.11.71,0,1.74.65,3.09,1.94a17.31,17.31,0,0,0,3.78,2.89,8.74,8.74,0,0,0,4.18.94,6,6,0,0,0,4.16-1.55,5.42,5.42,0,0,0,1.76-4.27,6.32,6.32,0,0,0-2.36-4.82,44.69,44.69,0,0,0-6.14-3.74,26.69,26.69,0,0,1-6.69-4.71,12.67,12.67,0,0,1-3.26-8.6A11.37,11.37,0,0,1,1047.52.83h1q5.94,0,8.69,1.51c1.82,1,2.74,2.94,2.74,5.81a2.9,2.9,0,0,1-.66,2.11,1.93,1.93,0,0,1-1.41.68q-.76,0-3.94-2.31A10.25,10.25,0,0,0,1048,6.32,5.08,5.08,0,0,0,1044,7.89a5.74,5.74,0,0,0-1.34,3.84c0,1.5.87,2.95,2.61,4.33q.07.06,5.59,3.26T1058.21,24.76Z"/></g></g></svg>