<svg xmlns="http://www.w3.org/2000/svg" viewBox="0 0 1312.58 46.27"><defs><style>.cls-1{fill:#fff;}</style></defs><g id="Layer_2" data-name="Layer 2"><g id="Layer_10" data-name="Layer 10"><path class="cls-1" d="M32.4,13.5C30.63,3.89,21.5.4,12.42,2,7.92.84.52,2.19,4.68,8.07c2.8,3.88.39,15.25,1.43,20.5.78,7.83-.78,12.2-5.79,14.51L0,46c.16.11,14.43-.33,14.49,0,.19-.15,5.6-.18,6-.17l-.16-2.4c-3.68-3-5.31-5.89-5.07-10.61-1-4.91,7.26,0,12.75-5.43h.19v-.1C31.18,24.61,33.24,17.05,32.4,13.5Zm-9.49,3.8c-.33,1.44-.5,2.14-.5,2.1-.92,3-4.23,6.26-6.72,3.69,0-3.2-2.34-15.25,2.39-14.81l2.39.79c1.11.37,2.34,6.07,2.44,5.27Z"/><path class="cls-1" d="M93.94,42.41A28,28,0,0,1,83.1,36.89a16.44,16.44,0,0,0-1.31-1.45,3.1,3.1,0,0,1-1-1.47,30.26,30.26,0,0,1-3.74-4.6l-.62-.81c-.18-.25-.37-.52-.56-.81a3.83,3.83,0,0,1-.66-1.95c0-.5.09-.79.28-.87a8.35,8.35,0,0,0,3-1.73,4.35,4.35,0,0,1,.42-.68c.22-.3.52-.69.9-1.16a3.68,3.68,0,0,0,1-2,4,4,0,0,0,0-.54,1.72,1.72,0,0,1,0-.44c.13-.57.27-1.11.43-1.62V13.51a20.15,20.15,0,0,0-.71-2.32c-.22-.73-.4-1.29-.52-1.68s-.21-.63-.24-.71c-.25-.5-.5-1-.73-1.35l-.59-1V6.37c-.16-.15-.33-.31-.5-.49a6.32,6.32,0,0,0-.59-.54l-.81-.84c-.22-.23-.41-.44-.56-.62a14,14,0,0,0-2.75-2.11c-.88-.26-1.67-.47-2.36-.65A15.27,15.27,0,0,0,69.11.74c-.22,0-.42-.06-.61-.08a5.44,5.44,0,0,0-.57,0H64.24a2.76,2.76,0,0,0-.82.22,3,3,0,0,1-.83.21H59.37A2.68,2.68,0,0,1,58.76,1c-.25,0-.52-.11-.81-.19L57.13.6a4,4,0,0,0-.69-.08,4.82,4.82,0,0,0-2.79.81A3.2,3.2,0,0,0,52.14,4a5.22,5.22,0,0,0,1.18,2.7A6.75,6.75,0,0,1,54.55,9q0,1.08.09,2.22c0,.18.13.75.29,1.73a14.91,14.91,0,0,1,.14,1.73c0,1-.06,2.11-.09,3.19a3.39,3.39,0,0,1-.1.57,3.14,3.14,0,0,0-.09.62v4.71a9.11,9.11,0,0,0,.14,1.41,10.73,10.73,0,0,1,.14,1.41c0,.21,0,.48,0,.78s0,.64,0,1,0,.69,0,1,0,.56,0,.78v5.2a2.09,2.09,0,0,0,0,.43v.43a5.79,5.79,0,0,1-.71,2.33,2.94,2.94,0,0,1-.52.81c-.22.26-.43.53-.64.81a5.77,5.77,0,0,0-.52,1,3.09,3.09,0,0,0-.21,1.17q0,3.74,3.5,3.73l.83,0c.33,0,.72,0,1.16-.08l1.18-.08.85,0a4.43,4.43,0,0,1,.59.06l.55.05c.34,0,.67.07,1,.08l.78,0a4.61,4.61,0,0,0,1.93-.32,3.17,3.17,0,0,0,1.71-2.82,4.36,4.36,0,0,0-.57-2.49l-1.09-1.57c-.38-.54-.57-1.87-.57-4,0-.22,0-.51.05-.87s0-.63,0-.81-.13-.72-.38-1.95a1.62,1.62,0,0,1,.38-1,1,1,0,0,1,.8-.48,2.27,2.27,0,0,1,1.23.65,3.19,3.19,0,0,1,1.07,1.19c.14.36.26.65.35.86,1,2.06,1.56,3.13,1.56,3.2l1.28,2.22a3.1,3.1,0,0,1,.33.32c.13.15.23.27.31.38a2.33,2.33,0,0,0,.21.27,4.71,4.71,0,0,0,.5.35l.4.25c.31.29.64.62,1,1s.73.82,1.14,1.32v.06a3.1,3.1,0,0,1,.56.54,5.3,5.3,0,0,0,1,1.11,8,8,0,0,0,1.4.95l2.41,1a12.25,12.25,0,0,0,4.07.6,6.71,6.71,0,0,0,1.78-.22C91.72,45.61,104.38,45.07,93.94,42.41ZM69.47,21.17q-.21.41-.69,1.17a6,6,0,0,1-2.69,1c-1.11,0-1.66-.95-1.66-2.86V15.79l.15-.38c-.19-2.09-.29-3.32-.29-3.68s0-.66,0-1,.08-.69.14-1.05c.25-1.08.54-1.61.85-1.57l2.6.22.14.1a2.17,2.17,0,0,1,1,.87,12.64,12.64,0,0,1,.71,1.25l.43.48a5,5,0,0,1,.33,1.63c.06,1.26.11,2.54.14,3.84l-.42,2.44a8.69,8.69,0,0,1-.57,1.78A4.65,4.65,0,0,0,69.47,21.17Z"/><path class="cls-1" d="M155.13,31.1a18.62,18.62,0,0,1-2.51,4.53,11.41,11.41,0,0,1-4,3.94l-1.06.85a16.94,16.94,0,0,1-1.51.94c-.66.39-1.52.86-2.56,1.42l-.42.27a3.44,3.44,0,0,0-.53.42,12.09,12.09,0,0,1-5.34,1.89c-.41,0-.94.07-1.59.11s-1.41.08-2.26.15l-3.29.32-1.17.11-3.73-1.27c-1.12-.38-2-.72-2.79-1s-1.3-.5-1.67-.68a11.1,11.1,0,0,1-3.84-2.74q-1-1.26-2.07-2.52a1.3,1.3,0,0,0-.33-.53q-.45-.53-1.11-1.23c-.45-.48-.93-1-1.45-1.71l-.84-1.74c-.18-.39-.3-.61-.33-.68-.26-.88-.59-1.95-1-3.21s-.84-2.76-1.36-4.47a6.1,6.1,0,0,1-.23-1.85,25.62,25.62,0,0,1,.9-2.73l-.12-.9a10.08,10.08,0,0,0,.39-2.57,8.67,8.67,0,0,1,1.62-3.32,15.47,15.47,0,0,1,2.4-2.84,6.9,6.9,0,0,0,.89-.74c.33-.31.74-.68,1.22-1.1.15-.21.35-.46.59-.76l.81-1a4.92,4.92,0,0,0,.72-.55c.3-.26.74-.62,1.34-1.08L120.58,4c.67-.31,1.43-.68,2.28-1.1.26-.18.54-.35.84-.53l.33-.1.39-.11a2.21,2.21,0,0,1,.73-.37,13.55,13.55,0,0,1,4.62-.95h1.56c.9,0,2.12,0,3.68.06l.56,0,.56.08c.4.07.85.16,1.33.27A14.1,14.1,0,0,1,139,1.7L140,2c.37.1.82.24,1.34.42.3.18.67.37,1.11.58s1,.45,1.56.74a12.54,12.54,0,0,1,2.23.94.15.15,0,0,1,.06.11.16.16,0,0,0,0,.1l2.29,2.37c.59.42,1.39,1.07,2.39,2l2.4,2.42s.09,0,.17.1c.29.49.61,1,.94,1.53s.65,1.07,1,1.63c.08.31.18.71.31,1.18l.47,1.71v.42a3,3,0,0,0,.06.53,11.52,11.52,0,0,1,.33,1.18c.11.48.24,1,.39,1.61v3.31A49.7,49.7,0,0,1,155.13,31.1Zm-10.31-5.23a1,1,0,0,1-.06-.29,3.3,3.3,0,0,0-.08-.68c-.06-.28-.12-.63-.2-1.06a.16.16,0,0,1,0-.1.15.15,0,0,0-.06-.11c-.18-.7-.42-1.5-.72-2.42s-.65-1.94-1.06-3.1c-.56-.81-1.3-2-2.23-3.58l-1.09-.89q-.63-.53-1.47-1.26a5.27,5.27,0,0,0-.45-.48l-.5-.47a5.54,5.54,0,0,0-.92-.5c-.54-.26-1.29-.64-2.26-1.13l-3.51-.63L127,9.38a3.13,3.13,0,0,0-.58.29c-.21.12-.44.27-.7.44a9.81,9.81,0,0,0-2.56,2.58l-.7,1.58c-.28.63-.6,1.39-1,2.26a8,8,0,0,0-.28.79c-.11.35-.26.81-.45,1.37v2.79c.08.35.17.71.28,1.08a9.82,9.82,0,0,1,.28,1.13c.22,1.08.46,2.19.72,3.31a11.24,11.24,0,0,1,1.29,1.79l.27.66c.12.26.26.58.45,1a16.84,16.84,0,0,0,2,2.42,1.56,1.56,0,0,0,.44.37,13,13,0,0,0,3,2.89l1.17.48a11.13,11.13,0,0,1,1,.57l1,.64a4.93,4.93,0,0,0,2.23.63,6.27,6.27,0,0,0,3.62-.74c.33-.24.72-.54,1.17-.89s1-.76,1.56-1.21,1.3-2.2,2.34-5.11l.11-.21.17-.31.83-3.32c.08-.07.11-.22.11-.47A.92.92,0,0,0,144.82,25.87Z"/><path class="cls-1" d="M195.67,6.6c2.11,0,5.3.1,7.84,1.36.36.18.78.36,1.28.59a8.86,8.86,0,0,1,3.11,2.34c.18.31.28.54.44.56a7.16,7.16,0,0,1,1.35,3.75h3l.58-11.49c-3.13-2.27-7.87-2.53-9.56-2.55A57,57,0,0,0,195.8.71h-1a22,22,0,0,0-9.09,1.92Q178.14,6,175,14.6a25.67,25.67,0,0,0-1.52,8.92v.23a26.36,26.36,0,0,0,1.29,8.64,19,19,0,0,0,10.6,11.71,21.85,21.85,0,0,0,9,1.76h1.29a29.94,29.94,0,0,0,3-.15c2.24-.06,8.95-.49,13.32-3.37.2-1.45.55-7,.2-8.69a15.87,15.87,0,0,0-4.64-.2,31.65,31.65,0,0,1-.46,5,2,2,0,0,1-.24.16l-9.27.64c-1.51,0-2.82-.08-3.55-.08-4,0-5.2-.92-7.57-3.88s-3.54-7-3.54-11.91,1.15-9,3.44-12.09A11,11,0,0,1,195.67,6.6Z"/><path class="cls-1" d="M250.59,45.48h-1.35a19.38,19.38,0,0,1-8.3-1.69q-6.7-3.1-8-10.85a80.78,80.78,0,0,1-.53-11.27,87.84,87.84,0,0,0-.24-9.24,8.92,8.92,0,0,0-1.16-2.67,5.73,5.73,0,0,1-.9-3,4,4,0,0,1,1.61-2.92c.59-.52,2-.77,4.16-.77a15.48,15.48,0,0,1,5,.62A2.33,2.33,0,0,1,242.62,6a28.66,28.66,0,0,1-.69,3.53q-.69,3-.69,13.17T243,36a7.81,7.81,0,0,0,7.34,4.07q6,0,8.39-4.33,1.9-3.39,1.91-12.58a118.67,118.67,0,0,0-.46-12.75,44.66,44.66,0,0,1-.46-5,1.86,1.86,0,0,1,1.34-1.91,11.65,11.65,0,0,1,3.84-.49,5.8,5.8,0,0,1,3.27.62,3.28,3.28,0,0,1,1.55,2.52V7a6.82,6.82,0,0,1-.91,2.72,10.47,10.47,0,0,0-1.1,3.55q-.19,1.77-.19,9A79.09,79.09,0,0,1,267,32.94a15.07,15.07,0,0,1-2.48,6.32,13.17,13.17,0,0,1-5.66,4.56A19.93,19.93,0,0,1,250.59,45.48Z"/><path class="cls-1" d="M329.13,42.43a27.9,27.9,0,0,1-10.84-5.53c-.51-.61-1-1.1-1.31-1.45A3,3,0,0,1,316,34a30.94,30.94,0,0,1-3.74-4.6l-.61-.81q-.28-.37-.57-.81a3.83,3.83,0,0,1-.66-1.95c0-.51.09-.79.28-.87a8.35,8.35,0,0,0,3-1.73,4.65,4.65,0,0,1,.43-.68c.22-.3.52-.69.89-1.16a3.68,3.68,0,0,0,1-2,4.31,4.31,0,0,0,.05-.54,1.78,1.78,0,0,1,0-.44c.13-.57.27-1.11.43-1.62V13.53a20.61,20.61,0,0,0-.71-2.33c-.22-.72-.4-1.28-.52-1.67s-.21-.64-.24-.71c-.25-.5-.49-1-.73-1.35l-.59-1v-.1c-.16-.15-.33-.31-.5-.49a6.32,6.32,0,0,0-.59-.54l-.8-.84-.57-.62a14.87,14.87,0,0,0-2.74-2.12l-2.37-.65a17.58,17.58,0,0,0-1.84-.37l-.62-.09-.56,0h-3.69a2.94,2.94,0,0,0-.83.21,2.8,2.8,0,0,1-.83.22h-3.21A3.38,3.38,0,0,1,294,1l-.8-.19c-.29-.07-.56-.14-.83-.19a4,4,0,0,0-.69-.08,4.82,4.82,0,0,0-2.79.81A3.18,3.18,0,0,0,287.33,4a5.21,5.21,0,0,0,1.18,2.71A6.83,6.83,0,0,1,289.74,9c0,.73.07,1.47.1,2.22,0,.18.12.76.28,1.74a12.84,12.84,0,0,1,.14,1.73c0,1-.06,2.11-.09,3.19a2.58,2.58,0,0,1-.1.57,3.14,3.14,0,0,0-.09.62v4.71a10.57,10.57,0,0,0,.14,1.41,9.11,9.11,0,0,1,.14,1.41c0,.21,0,.48,0,.78s0,.64,0,1,0,.7,0,1,0,.57,0,.79v5.2a1.63,1.63,0,0,0,.05.43v.43a6,6,0,0,1-.71,2.33,3.19,3.19,0,0,1-.52.81,7.36,7.36,0,0,0-.64.81,4.59,4.59,0,0,0-.52,1,2.86,2.86,0,0,0-.22,1.16q0,3.73,3.5,3.74l.83,0,1.16-.08,1.18-.08.85,0a4.28,4.28,0,0,1,.59.06l.55,0c.34,0,.67.06,1,.08l.78,0a4.49,4.49,0,0,0,1.94-.33,3.15,3.15,0,0,0,1.7-2.81,4.36,4.36,0,0,0-.57-2.49L300,38.81c-.37-.54-.56-1.88-.56-4,0-.21,0-.5,0-.86a7.4,7.4,0,0,0,0-.81c0-.07-.13-.72-.38-2a1.62,1.62,0,0,1,.38-1,1,1,0,0,1,.81-.48,2.28,2.28,0,0,1,1.22.65,3.1,3.1,0,0,1,1.07,1.19c.14.36.26.65.35.86,1,2.06,1.56,3.12,1.56,3.2l1.28,2.22a1.93,1.93,0,0,1,.33.32c.13.15.23.27.31.38l.21.27a6,6,0,0,0,.5.35l.4.25c.31.29.65.62,1,1s.73.82,1.14,1.32v.06a3.36,3.36,0,0,1,.57.54,4.78,4.78,0,0,0,1,1.11,7.51,7.51,0,0,0,1.39,1l2.41,1a12.31,12.31,0,0,0,4.07.59,6.74,6.74,0,0,0,1.78-.21C326.91,45.63,339.57,45.09,329.13,42.43ZM304.66,21.19c-.14.27-.37.66-.68,1.16a6,6,0,0,1-2.7,1c-1.1,0-1.65-.95-1.65-2.87v-4.7l.14-.38c-.19-2.1-.29-3.32-.29-3.69s0-.65,0-1,.08-.69.14-1.05c.26-1.08.54-1.61.85-1.57l2.61.21.14.11a2.21,2.21,0,0,1,1,.87c.25.4.49.81.71,1.24l.42.49a4.91,4.91,0,0,1,.33,1.63c.07,1.26.11,2.54.15,3.84l-.43,2.43a8.6,8.6,0,0,1-.57,1.79A4.65,4.65,0,0,0,304.66,21.19Z"/><path class="cls-1" d="M372.22,35.67a8,8,0,0,1-5,4.44h0c-.39,0-.77,0-1.17,0-2.4,0-3.83-.43-4.31-1.29q-1.39-2.53-1.4-8c0-1.73.36-6.09.91-6.58a3.73,3.73,0,0,1,2.56-.75c.52,0,1.71,0,3,0a5.46,5.46,0,0,1,1.79,2.88c.63,2.07,4.8,1.12,6.36-1.44.4.1.59-.18.59-1.84,0-2.22-.25-2.94-.6-3.59A2.91,2.91,0,0,0,372.11,18a7.43,7.43,0,0,0-2,.66,32.1,32.1,0,0,1-6.62.9,3.69,3.69,0,0,1-2.37-1.25c-.45-.36.3-1.49.3-2.74a17.35,17.35,0,0,1,1.13-7c.57-1.24.85-1.53,2.79-1.53.78,0,1.52,0,2.25.08a4.14,4.14,0,0,1,2.33,3c.39,2.51,4.25,2.51,4.25,2.51s1.93-9.85.58-10.43a10.75,10.75,0,0,0-2.33-.35c-.42-.28-1-.42-3.86-.42l-1,0h-3.13c-.73,0-1.43,0-2.11,0h-.09l-13.9-.19s-.19,4.44.77,4.44c.55,0,2.32-.06,3.94.06a2.91,2.91,0,0,1,.5.91c.5,1.45-.2,3.74,0,5.39s.31,5.15.31,10.53-.12,9.16-.36,11.35a31.77,31.77,0,0,0-.09,3.39l-.24-.15a4,4,0,0,1,.24.53,7.72,7.72,0,0,1-.24,2.37,2,2,0,0,1-.49.75,7,7,0,0,1-4,1,3.86,3.86,0,0,0-.19,3.67l12,.18c1.28.08,2.68.12,4.22.12h3.13c3.87,0,6.4-.28,7.58-.82q2.19-1,2.19-4.56C377.62,38.57,377.82,35.86,372.22,35.67Z"/><path class="cls-1" d="M472.08,45.89l-.14-5.32s-3.66-1.13-7.29-2.65c-1.66-.94-2-1.89-1.76-5.27-1.75-3.73.31-7.6-.83-11.73-.64-3.1-.26-5.77-.19-8.59-.4-2.15-2.45-5,1.21-5.86V6.36c4.19-1.16,3.2-6.15-1-5.86a90.32,90.32,0,0,1-11.77.1c-3.84.49-6.4,4.43-7.48,7.88-2.4,4-4.29,8.72-7.16,12.23-3.13-1.87-5.38-9.25-6.62-12.46-.74-4.9-4.19-7.92-9.29-7.23C415.46,2,407-1.87,406.12,4.11c-.51,1.82,3.71,3.63,3.82,4.82-.34,1.44.22,3.07.38,4.5a14.77,14.77,0,0,0-.57,5.66c-.19,3.34.09,4.53-.7,6.86,1,3.28,0,8.3-.4,10.93,0,1.49-1.71,2.5-3,3.58-2.2,1-4.07,1.64-4.07,1.64l0,3.79h20.58s.34-3-.18-3.25-5.33-4.56-5.33-4.56l-.07-.07c-.66-1.37-.18-3.46-.68-5.41.81-1.75.11-12.18.7-14.56,1.65-.23,5.17,1.47,5.7,2.42,1,2,3.23,3.47,3.8,5.45l.28.88,1.7,3.25c2.29,4.06,2.85,8,4.45,12.1,1,1.91,2.14,2.63,3.81,1.27,1.95-2.9.14-6.82,2.23-9.58.08-2.26,2.49-6,2.67-8.22.68-1.76.81-3.59,2.42-4.61,0,0,3.17-4.37,4.92-4a38.49,38.49,0,0,1,3.31,3.53c.17.45.31.84.41,1.17.87,4.74.4,10,.67,14.8a3.15,3.15,0,0,1-.69,1.94c-1.59,1.21-5.06,3.82-5.56,4-.66.29-.22,3.5-.22,3.5h6.44a10.26,10.26,0,0,0,2.35,0l1.36.08Z"/><path class="cls-1" d="M515.17,35.71a8,8,0,0,1-5,4.44h0c-.38,0-.77,0-1.17,0-2.39,0-3.82-.44-4.31-1.3-.92-1.69-1.39-4.37-1.39-8,0-1.73.36-6.09.91-6.58a3.73,3.73,0,0,1,2.56-.75c.52,0,1.71,0,3,0a5.43,5.43,0,0,1,1.79,2.88c.64,2.07,4.81,1.12,6.37-1.44.4.1.59-.18.59-1.84,0-2.22-.25-2.94-.61-3.59a2.92,2.92,0,0,0-2.78-1.52,7.33,7.33,0,0,0-2,.66,32.1,32.1,0,0,1-6.62.91,3.67,3.67,0,0,1-2.37-1.26c-.45-.36.3-1.49.3-2.74a17.37,17.37,0,0,1,1.12-7c.57-1.24.86-1.53,2.79-1.53.78,0,1.52,0,2.26.08a4.14,4.14,0,0,1,2.33,3c.38,2.51,4.24,2.51,4.24,2.51s1.94-9.85.58-10.43A10.62,10.62,0,0,0,515.36,2c-.43-.28-1-.42-3.86-.42l-1,0h-3.14c-.73,0-1.42,0-2.1,0h-.09l-13.9-.2s-.2,4.44.77,4.44c.54,0,2.32-.06,3.93.06a2.92,2.92,0,0,1,.51.91c.5,1.46-.2,3.74,0,5.39s.31,5.16.31,10.54-.12,9.16-.36,11.34a31.84,31.84,0,0,0-.09,3.39l-.25-.15a3.32,3.32,0,0,1,.25.53,7.38,7.38,0,0,1-.25,2.37,1.91,1.91,0,0,1-.48.75,6.9,6.9,0,0,1-4,1,3.82,3.82,0,0,0-.19,3.67l12,.19c1.28.07,2.68.11,4.21.11h3.14c3.87,0,6.4-.28,7.57-.82q2.21-1,2.2-4.56C520.58,38.61,520.77,35.9,515.17,35.71Z"/><path class="cls-1" d="M584.18.93c-3.09,0-13.65.26-13.65.26s-1.8,2.45-.13,4c5.54-.77,4.89,7.86,4.89,7.86l.22-.06c.18,2.36.27,5.4.27,9.16q0,9.69-.32,9.69-.8,0-9.89-11.72T555.08,7.19a14.34,14.34,0,0,0-9.83-3.36c-2.08,0-3.11.55-3.11,1.64l.14,1a19.75,19.75,0,0,0,.66,2.09l.35,1.11a21.91,21.91,0,0,1,.61,4.72q.12,2.91.12,12.21c0,4.29,0,7.32-.12,9.17-.18.34-.28.56-.28.56s-2.06,4.77-6.44,5.54a6.8,6.8,0,0,0-1,4.25l7.29,0c.58,0,1.39.08,2.44.08q.72,0,1.38-.06l7.56.06v-4.9a6.38,6.38,0,0,1-2.68-1.58c-.11-.67-.25-1.44-.42-2.34a51.15,51.15,0,0,1-.84-9.46q0-5,0-6.36l0-1.39c0-2.17.22-3.26.66-3.26q1.41,0,10,11.34t11.1,13.82a10,10,0,0,0,7.14,3.33,3.9,3.9,0,0,0,2-.37,2.06,2.06,0,0,0,.75-1.52q.18-1.16.18-13.13t.21-14.53a24.1,24.1,0,0,1,1.13-5.41,24.2,24.2,0,0,0,.93-3.19,1.36,1.36,0,0,0,0-.2C585.81,4.17,586.49,3.13,584.18.93Z"/><path class="cls-1" d="M638.24,4.75a2.89,2.89,0,0,0-2.82-3.24l-21.95-.33-9.61.15a2.84,2.84,0,0,0-2.78,2.59l-.48,5.57a1.12,1.12,0,0,0,1.6,1.06,48.21,48.21,0,0,1,6.62-2.62h0a5.37,5.37,0,0,0,1.71-.49c1.08-.29,2.21-.53,3.38-.73.72.09,1.39.26,1.86.26,1.44,0,1.44,2.48,1.76,4.18a98.25,98.25,0,0,1,.36,11.51V30l0,1.84a30.17,30.17,0,0,1-.31,5.17,23.28,23.28,0,0,1-.93,3.23,8.5,8.5,0,0,0-.62,2.45,3.1,3.1,0,0,0,1.18,2.84,7.45,7.45,0,0,0,3.35.47l.75,0H622a12.8,12.8,0,0,0,3.54-.28,2.46,2.46,0,0,0,1.66-2.41,14.07,14.07,0,0,0-.76-3.3,25.46,25.46,0,0,1-1-5.77Q625.3,31,625.3,22t.42-10.95c.36-1.72.62-4.89,2-4.89a14.29,14.29,0,0,1,5.08,2.46,12.11,12.11,0,0,0,1.73,1.82,7,7,0,0,1,.92,1.9C640.89,10.06,638.19,6.78,638.24,4.75Z"/><path class="cls-1" d="M708.94,45.18c-9.22-3.3-6.42-1.22-15.4.44-8.68,2.67-16.09-9.75-8.55-15.46,5.39-2.39-2.59-5.8-1.92-10.84,1.07-10.6,18.91-15.76,22.22-3.49,1.94,5-1.24,9.55-3.8,13.18,0,3.55,1.19,6,4.16,1.83,1.74-2.91,2.42-5.62,7.65-3.68a25.66,25.66,0,0,1-8.13,11.43C708.17,39.07,710.59,41.3,708.94,45.18Zm-13.8-8.63c-1-1.21-4.11-5.22-4.12-1.54C689.85,38.83,698.74,41,695.14,36.55Zm3.61-17.8c.16-5.36-5.86-6.69-6.45-.87C692.65,23.08,699.5,25.82,698.75,18.75Z"/><path class="cls-1" d="M799.85,13.52C798.08,3.91,789,.42,779.87,2c-4.5-1.18-11.9.18-7.73,6.06,2.8,3.88.38,15.25,1.42,20.5.78,7.83-.78,12.2-5.79,14.51L767.45,46c.16.11,14.43-.33,14.49,0,.2-.15,5.6-.18,6-.17l-.16-2.4c-3.69-3-5.32-5.89-5.07-10.61-1-4.91,7.25,0,12.75-5.43h.18v-.1C798.64,24.63,800.69,17.07,799.85,13.52Zm-9.48,3.79c-.34,1.45-.51,2.15-.51,2.11-.92,3-4.22,6.26-6.72,3.69,0-3.2-2.34-15.26,2.39-14.81l2.4.79c1.1.37,2.34,6.07,2.44,5.27Z"/><path class="cls-1" d="M846.52,45.84l-.13-9.65a5.26,5.26,0,0,0-4.12-2.06,4.45,4.45,0,0,1-2,3.93,12.3,12.3,0,0,1-5.44,1.31q-3,0-3.66-2-.48-1.35-.48-10.76V19.51c0-.68,0-1.29,0-1.85l0-.83a43.3,43.3,0,0,1,.28-6.18,26.18,26.18,0,0,1,.78-3.3,12.88,12.88,0,0,0,.47-2A3.81,3.81,0,0,1,834,4.77c4.25-.19-2.12-4-2.12-4-.58,0-16.42-.39-16.42-.39l.58,4.25s5.53.6,7.78,4a11.85,11.85,0,0,1,.29,1.44q.17,1.41.17,13.38c0,3.38,0,6.14-.07,8.3l-.25-.31s1.16,7.15-5.41,8.89a35.76,35.76,0,0,0-.39,5.21s2.61.07,5.74,0h0Z"/><path class="cls-1" d="M900.88,30.38q-1.57-3.72-4.61-12.49-4.39-12.66-4.95-14a4.06,4.06,0,0,0-4.06-2.6,4.39,4.39,0,0,0-4.17,2.52c-.23.43-.87,2.23-2,5.4S878.67,16.32,877,21c-1.64,4.52-2.7,7.36-3.18,8.56-.24.39-.48.82-.73,1.3-5.21,10-10.23,13.91-10.23,13.91s16,1.93,15.45.19c-.48-1.42,1-9.92,1.53-13a4.36,4.36,0,0,1,.55-1q.87-1,5.63-1t5.89,1.12a3.74,3.74,0,0,1,.7,1.07v0s1.73,9.65,2.51,12.74c.71,2.87,14.1,0,14.1,0S904.38,37.3,900.88,30.38Zm-11-5.14c0,.22-.95.34-2.85.34h-1.8l-1.73.14h-.14l-.17,0h-.14c-.6,0-.9-.16-.9-.5,0,0,.23-.72.69-2.09a27.63,27.63,0,0,0,.88-3l.45-1.68Q885.67,13,886,11.68a5.83,5.83,0,0,1,.33-1.3,16.46,16.46,0,0,1,.55,2.13c.32,1.42.59,2.51.8,3.27s.38,1.54.53,2.37.44,2,.87,3.64l.22.84a14.34,14.34,0,0,1,.67,2.33Z"/><path class="cls-1" d="M947.15,6.57c2.12,0,5.31.1,7.85,1.36.35.18.78.36,1.28.59a9.31,9.31,0,0,1,3.11,2.34c.17.32.28.54.43.56a7.23,7.23,0,0,1,1.36,3.75h3l.58-11.49c-3.13-2.27-7.87-2.53-9.55-2.54a56.86,56.86,0,0,0-7.91-.46h-1a22,22,0,0,0-9.08,1.92q-7.53,3.36-10.67,12A25.72,25.72,0,0,0,925,23.5v.22a26.55,26.55,0,0,0,1.28,8.64,19,19,0,0,0,10.6,11.71,21.74,21.74,0,0,0,9,1.76h1.28a29.79,29.79,0,0,0,3-.15c2.25-.06,9-.49,13.33-3.37.19-1.45.54-7,.19-8.69a15.8,15.8,0,0,0-4.63-.2,33,33,0,0,1-.46,5l-.24.16-9.27.64c-1.52,0-2.83-.08-3.55-.08-4,0-5.21-.91-7.57-3.88s-3.55-7-3.55-11.9,1.15-9,3.45-12.1A11,11,0,0,1,947.15,6.57Z"/><path class="cls-1" d="M1009.32,35.2a8,8,0,0,1-5,4.45h0c-.38,0-.76,0-1.16,0-2.4,0-3.83-.43-4.31-1.3q-1.4-2.52-1.4-8c0-1.73.36-6.09.91-6.59a3.78,3.78,0,0,1,2.56-.74c.52,0,1.71,0,3,0a5.4,5.4,0,0,1,1.8,2.87c.63,2.07,4.8,1.12,6.36-1.43.4.09.59-.19.59-1.85,0-2.21-.25-2.93-.6-3.59a2.94,2.94,0,0,0-2.79-1.52,7.61,7.61,0,0,0-2,.67,32.79,32.79,0,0,1-6.62.9,3.69,3.69,0,0,1-2.37-1.25c-.45-.36.3-1.5.3-2.74a17.28,17.28,0,0,1,1.13-7c.57-1.25.85-1.54,2.79-1.54.78,0,1.51,0,2.25.09a4.11,4.11,0,0,1,2.33,3c.38,2.51,4.25,2.51,4.25,2.51s1.93-9.85.58-10.43a11.08,11.08,0,0,0-2.33-.34c-.43-.28-1-.43-3.86-.43l-1,0h-3.13c-.73,0-1.43,0-2.11,0h-.09L985.37.83s-.2,4.44.77,4.44c.55,0,2.32-.06,3.93.06a2.87,2.87,0,0,1,.51.9c.5,1.46-.2,3.75,0,5.39s.31,5.16.31,10.54-.12,9.16-.36,11.34a31.84,31.84,0,0,0-.09,3.39l-.24-.14a4.24,4.24,0,0,1,.24.52,7.76,7.76,0,0,1-.24,2.38,2.12,2.12,0,0,1-.49.75,7,7,0,0,1-4,1,3.85,3.85,0,0,0-.19,3.67l12,.19c1.28.07,2.68.11,4.22.11h3.13q5.8,0,7.58-.82,2.19-1,2.19-4.56C1014.72,38.1,1014.92,35.4,1009.32,35.2Z"/><path class="cls-1" d="M1104.48,45.41l-.13-5.33s-3.67-1.12-7.29-2.64c-1.67-.94-2-1.89-1.77-5.27-1.74-3.73.31-7.61-.82-11.73-.65-3.11-.26-5.77-.2-8.59-.4-2.15-2.44-5,1.21-5.87v-.1c4.19-1.17,3.21-6.16-1-5.87a90.46,90.46,0,0,1-11.78.11c-3.84.48-6.4,4.43-7.48,7.88-2.4,4-4.29,8.72-7.16,12.23-3.13-1.87-5.38-9.26-6.62-12.47-.74-4.89-4.19-7.92-9.29-7.22-4.28,1-12.74-2.89-13.62,3.09-.51,1.81,3.71,3.62,3.82,4.81-.34,1.45.22,3.08.38,4.51a14.94,14.94,0,0,0-.57,5.66c-.19,3.34.09,4.53-.7,6.86,1,3.27,0,8.29-.4,10.93,0,1.48-1.71,2.5-3,3.58-2.2,1-4.07,1.64-4.07,1.64l0,3.79h20.58s.34-3-.17-3.25S1049,37.6,1049,37.6l-.07-.07c-.66-1.38-.17-3.46-.67-5.41.81-1.75.1-12.18.7-14.56,1.64-.23,5.16,1.47,5.7,2.42,1,2,3.22,3.47,3.79,5.44l.28.89,1.71,3.24c2.28,4.07,2.84,8,4.44,12.11,1,1.9,2.14,2.62,3.81,1.27,2-2.9.15-6.82,2.23-9.58.08-2.27,2.49-6,2.67-8.22.68-1.76.81-3.6,2.42-4.61,0,0,3.17-4.38,4.92-4a37.08,37.08,0,0,1,3.31,3.52c.17.46.31.85.42,1.18.87,4.74.39,10,.67,14.8a3.25,3.25,0,0,1-.7,1.94c-1.59,1.2-5.06,3.82-5.56,4-.66.29-.22,3.5-.22,3.5h6.44a10.26,10.26,0,0,0,2.35,0l1.36.08Z"/><path class="cls-1" d="M1148.21,35.2a8,8,0,0,1-5,4.45h0c-.38,0-.76,0-1.17,0-2.39,0-3.82-.43-4.3-1.3q-1.4-2.52-1.4-8c0-1.73.36-6.09.91-6.59a3.78,3.78,0,0,1,2.56-.74c.52,0,1.71,0,3,0a5.35,5.35,0,0,1,1.79,2.87c.64,2.07,4.81,1.12,6.37-1.43.4.09.59-.19.59-1.85,0-2.21-.25-2.93-.61-3.59a2.92,2.92,0,0,0-2.78-1.52,7.5,7.5,0,0,0-2,.67,32.79,32.79,0,0,1-6.62.9,3.67,3.67,0,0,1-2.37-1.25c-.45-.36.3-1.5.3-2.74a17.48,17.48,0,0,1,1.12-7c.58-1.25.86-1.54,2.8-1.54.78,0,1.51,0,2.25.09a4.11,4.11,0,0,1,2.33,3c.38,2.51,4.25,2.51,4.25,2.51s1.93-9.85.58-10.43a11.08,11.08,0,0,0-2.33-.34c-.43-.28-1-.43-3.86-.43l-1,0h-3.14q-1.08,0-2.1,0h-.09l-13.9-.19s-.2,4.44.77,4.44c.54,0,2.32-.06,3.93.06a2.87,2.87,0,0,1,.51.9c.5,1.46-.2,3.75,0,5.39s.31,5.16.31,10.54-.12,9.16-.36,11.34a31.84,31.84,0,0,0-.09,3.39l-.25-.14a3.46,3.46,0,0,1,.25.52,7.41,7.41,0,0,1-.25,2.38,2,2,0,0,1-.48.75,7,7,0,0,1-4,1,3.82,3.82,0,0,0-.19,3.67l12,.19c1.28.07,2.68.11,4.22.11h3.13c3.87,0,6.4-.27,7.57-.82q2.2-1,2.2-4.56C1153.62,38.1,1153.82,35.4,1148.21,35.2Z"/><path class="cls-1" d="M1216.58.27c-3.09,0-13.65.26-13.65.26s-1.8,2.45-.13,4c5.54-.77,4.89,7.86,4.89,7.86l.22-.06c.18,2.36.27,5.4.27,9.16q0,9.69-.31,9.69-.81,0-9.9-11.72T1187.48,6.53a14.32,14.32,0,0,0-9.83-3.36c-2.07,0-3.11.55-3.11,1.63l.14,1c0,.25.27.94.66,2.09l.35,1.11a21.91,21.91,0,0,1,.61,4.72q.14,2.91.13,12.21c0,4.29,0,7.32-.13,9.17-.18.34-.28.56-.28.56s-2.06,4.76-6.44,5.54a6.87,6.87,0,0,0-1,4.25l7.29.05c.59,0,1.39.08,2.44.08.49,0,.94,0,1.38-.06l7.56.05V40.7a6.38,6.38,0,0,1-2.67-1.58c-.12-.67-.26-1.44-.43-2.34a51.15,51.15,0,0,1-.84-9.46q0-5,0-6.37l0-1.38c0-2.17.22-3.26.67-3.26q1.39,0,10,11.34T1205,41.47a10,10,0,0,0,7.14,3.33,3.9,3.9,0,0,0,2-.37,2.1,2.1,0,0,0,.76-1.53q.17-1.15.17-13.12t.21-14.53a23.79,23.79,0,0,1,1.14-5.42,24.66,24.66,0,0,0,.92-3.18c0-.07,0-.13,0-.2C1218.21,3.51,1218.89,2.47,1216.58.27Z"/><path class="cls-1" d="M1271.85,4.64A2.9,2.9,0,0,0,1269,1.4l-21.94-.33-9.61.15a2.83,2.83,0,0,0-2.78,2.59l-.48,5.57a1.12,1.12,0,0,0,1.6,1.06,48.45,48.45,0,0,1,6.62-2.62h0a5.46,5.46,0,0,0,1.71-.5c1.08-.29,2.22-.53,3.38-.73.73.09,1.39.26,1.86.26,1.45,0,1.45,2.48,1.76,4.19.25,1.26.37,5.1.37,11.5v7.33l-.06,1.84a29.36,29.36,0,0,1-.31,5.18,22.12,22.12,0,0,1-.92,3.22,8.17,8.17,0,0,0-.62,2.45,3.1,3.1,0,0,0,1.18,2.84,7.4,7.4,0,0,0,3.34.47l.76,0h.76a12.8,12.8,0,0,0,3.54-.28,2.46,2.46,0,0,0,1.66-2.4,14,14,0,0,0-.76-3.31,24.83,24.83,0,0,1-1-5.77q-.21-3.3-.21-12.22t.42-10.95c.36-1.72.61-4.89,2-4.89a14.37,14.37,0,0,1,5.08,2.46,13.54,13.54,0,0,0,1.72,1.83,6.27,6.27,0,0,1,.92,1.89C1274.5,10,1271.8,6.67,1271.85,4.64Z"/><path class="cls-1" d="M1309.68,24.76a13.2,13.2,0,0,1,2.9,8.76,11.41,11.41,0,0,1-3.64,8.7,12.25,12.25,0,0,1-8.75,3.46h-1q-6.36,0-9.73-1.79a5.73,5.73,0,0,1-2.26-2.22,6.17,6.17,0,0,1-.89-3.22v-.94c0-2.07.79-3.11,2.36-3.11.71,0,1.74.65,3.08,2a17.31,17.31,0,0,0,3.78,2.89,8.77,8.77,0,0,0,4.18.94,6.11,6.11,0,0,0,4.17-1.55,5.41,5.41,0,0,0,1.75-4.27,6.31,6.31,0,0,0-2.35-4.82,44.32,44.32,0,0,0-6.14-3.74,26.31,26.31,0,0,1-6.69-4.71,12.64,12.64,0,0,1-3.26-8.6A11.34,11.34,0,0,1,1299,.84h1c4,0,6.86.5,8.69,1.5s2.74,2.94,2.74,5.81a3,3,0,0,1-.65,2.12,2,2,0,0,1-1.42.68q-.75,0-3.93-2.31a10.25,10.25,0,0,0-5.89-2.31,5,5,0,0,0-4.06,1.57,5.66,5.66,0,0,0-1.34,3.83c0,1.51.86,2.95,2.6,4.34q.09.06,5.59,3.26C1306,21.47,1308.43,23.28,1309.68,24.76Z"/></g></g></svg>